<svg width="24" height="24" viewBox="0 0 24 24" fill="none" xmlns="http://www.w3.org/2000/svg">
    <path d="M18.4837 4.98747C18.3088 4.84411 18.1051 4.74009 17.8864 4.68249C17.6676 4.62492 17.4391 4.6151 17.2162 4.65372C16.9148 4.70352 16.634 4.83912 16.4076 5.04432C16.1812 5.24952 16.0187 5.51562 15.9396 5.81075C15.8604 6.10587 15.868 6.41757 15.9615 6.7085C16.0548 6.99946 16.2301 7.25731 16.4662 7.45122C17.5998 8.37905 18.4118 9.64089 18.7864 11.057C19.1611 12.4732 19.0794 13.9715 18.553 15.3384C18.0265 16.7055 17.0822 17.8715 15.8544 18.6706C14.6266 19.4696 13.1781 19.8609 11.715 19.7887C9.94792 19.6806 8.28641 18.911 7.06124 17.633C5.83608 16.355 5.13719 14.6625 5.10374 12.8925C5.09291 11.8528 5.31652 10.824 5.75801 9.88261C6.19946 8.94125 6.84742 8.11149 7.65374 7.45497C7.98194 7.18846 8.19082 6.80244 8.23443 6.38187C8.27804 5.96135 8.15279 5.54067 7.88624 5.21247C7.61969 4.88427 7.23371 4.6754 6.81314 4.63179C6.39258 4.58821 5.97194 4.71346 5.64374 4.97997C4.09436 6.24395 2.9531 7.93764 2.36335 9.84822C1.7736 11.7588 1.76168 13.8011 2.32907 15.7184C2.89646 17.6358 4.01786 19.3427 5.55236 20.6246C7.08686 21.9066 8.96602 22.7065 10.9537 22.9237C11.3274 22.9642 11.7029 22.9842 12.0787 22.9837C14.5743 22.9867 16.9812 22.0587 18.8287 20.3812C19.9163 19.4055 20.7798 18.206 21.36 16.865C21.9401 15.524 22.2232 14.0733 22.1897 12.6126C22.1562 11.1519 21.807 9.71577 21.166 8.40279C20.5249 7.0898 19.6074 5.93109 18.4762 5.00622L18.4837 4.98747Z" fill="#92E59B"/>
    <path d="M12 12.8438C12.4224 12.8428 12.8272 12.6745 13.1259 12.3759C13.4245 12.0772 13.5928 11.6724 13.5938 11.25V2.625C13.5938 2.20231 13.4258 1.79694 13.1269 1.49805C12.8281 1.19916 12.4227 1.03125 12 1.03125C11.5773 1.03125 11.1719 1.19916 10.8731 1.49805C10.5742 1.79694 10.4062 2.20231 10.4062 2.625V11.25C10.4072 11.6724 10.5755 12.0772 10.8741 12.3759C11.1728 12.6745 11.5776 12.8428 12 12.8438Z" fill="#92E59B"/>
</svg>
