<svg width="253" height="115" viewBox="0 0 253 115" fill="none" xmlns="http://www.w3.org/2000/svg">
    <line x1="25" y1="25" x2="44" y2="25" stroke="black" stroke-width="4"/>
    <line x1="222" y1="25" x2="241" y2="25" stroke="black" stroke-width="4"/>
    <line x1="42" y1="27" x2="42" y2="76" stroke="black" stroke-width="4"/>
    <line x1="224" y1="27" x2="224" y2="93" stroke="black" stroke-width="4"/>
    <line x1="42" y1="74" x2="113" y2="74" stroke="black" stroke-width="4"/>
    <path d="M19.3536 23.6464C19.1583 23.4512 18.8417 23.4512 18.6464 23.6464L15.4645 26.8284C15.2692 27.0237 15.2692 27.3403 15.4645 27.5355C15.6597 27.7308 15.9763 27.7308 16.1716 27.5355L19 24.7071L21.8284 27.5355C22.0237 27.7308 22.3403 27.7308 22.5355 27.5355C22.7308 27.3403 22.7308 27.0237 22.5355 26.8284L19.3536 23.6464ZM18.6464 76.3536C18.8417 76.5488 19.1583 76.5488 19.3536 76.3536L22.5355 73.1716C22.7308 72.9763 22.7308 72.6597 22.5355 72.4645C22.3403 72.2692 22.0237 72.2692 21.8284 72.4645L19 75.2929L16.1716 72.4645C15.9763 72.2692 15.6597 72.2692 15.4645 72.4645C15.2692 72.6597 15.2692 72.9763 15.4645 73.1716L18.6464 76.3536ZM18.5 24L18.5 76L19.5 76L19.5 24L18.5 24Z" fill="black"/>
    <path d="M6.5625 49.1367V50.0566H1.94531V49.1367H6.5625ZM2.12109 45.4688V54H0.990234V45.4688H2.12109ZM7.54688 45.4688V54H6.42188V45.4688H7.54688ZM12.8379 45.4219V54H11.7539V46.7754L9.56836 47.5723V46.5938L12.668 45.4219H12.8379Z" fill="black"/>
    <path d="M249.354 23.6464C249.158 23.4512 248.842 23.4512 248.646 23.6464L245.464 26.8284C245.269 27.0237 245.269 27.3403 245.464 27.5355C245.66 27.7308 245.976 27.7308 246.172 27.5355L249 24.7071L251.828 27.5355C252.024 27.7308 252.34 27.7308 252.536 27.5355C252.731 27.3403 252.731 27.0237 252.536 26.8284L249.354 23.6464ZM248.646 93.3536C248.842 93.5488 249.158 93.5488 249.354 93.3536L252.536 90.1716C252.731 89.9763 252.731 89.6597 252.536 89.4645C252.34 89.2692 252.024 89.2692 251.828 89.4645L249 92.2929L246.172 89.4645C245.976 89.2692 245.66 89.2692 245.464 89.4645C245.269 89.6597 245.269 89.9763 245.464 90.1716L248.646 93.3536ZM248.5 24L248.5 93L249.5 93L249.5 24L248.5 24Z" fill="black"/>
    <path d="M238.562 58.1367V59.0566H233.945V58.1367H238.562ZM234.121 54.4688V63H232.99V54.4688H234.121ZM239.547 54.4688V63H238.422V54.4688H239.547ZM246.865 62.1094V63H241.281V62.2207L244.076 59.1094C244.42 58.7266 244.686 58.4023 244.873 58.1367C245.064 57.8672 245.197 57.627 245.271 57.416C245.35 57.2012 245.389 56.9824 245.389 56.7598C245.389 56.4785 245.33 56.2246 245.213 55.998C245.1 55.7676 244.932 55.584 244.709 55.4473C244.486 55.3105 244.217 55.2422 243.9 55.2422C243.521 55.2422 243.205 55.3164 242.951 55.4648C242.701 55.6094 242.514 55.8125 242.389 56.0742C242.264 56.3359 242.201 56.6367 242.201 56.9766H241.117C241.117 56.4961 241.223 56.0566 241.434 55.6582C241.645 55.2598 241.957 54.9434 242.371 54.709C242.785 54.4707 243.295 54.3516 243.9 54.3516C244.439 54.3516 244.9 54.4473 245.283 54.6387C245.666 54.8262 245.959 55.0918 246.162 55.4355C246.369 55.7754 246.473 56.1738 246.473 56.6309C246.473 56.8809 246.43 57.1348 246.344 57.3926C246.262 57.6465 246.146 57.9004 245.998 58.1543C245.854 58.4082 245.684 58.6582 245.488 58.9043C245.297 59.1504 245.092 59.3926 244.873 59.6309L242.588 62.1094H246.865Z" fill="black"/>
    <path d="M43.6464 110.646C43.4512 110.842 43.4512 111.158 43.6464 111.354L46.8284 114.536C47.0237 114.731 47.3403 114.731 47.5355 114.536C47.7308 114.34 47.7308 114.024 47.5355 113.828L44.7071 111L47.5355 108.172C47.7308 107.976 47.7308 107.66 47.5355 107.464C47.3403 107.269 47.0237 107.269 46.8284 107.464L43.6464 110.646ZM113.354 111.354C113.549 111.158 113.549 110.842 113.354 110.646L110.172 107.464C109.976 107.269 109.66 107.269 109.464 107.464C109.269 107.66 109.269 107.976 109.464 108.172L112.293 111L109.464 113.828C109.269 114.024 109.269 114.34 109.464 114.536C109.66 114.731 109.976 114.731 110.172 114.536L113.354 111.354ZM44 111.5H113V110.5H44V111.5Z" fill="black"/>
    <path d="M170.646 110.646C170.451 110.842 170.451 111.158 170.646 111.354L173.828 114.536C174.024 114.731 174.34 114.731 174.536 114.536C174.731 114.34 174.731 114.024 174.536 113.828L171.707 111L174.536 108.172C174.731 107.976 174.731 107.66 174.536 107.464C174.34 107.269 174.024 107.269 173.828 107.464L170.646 110.646ZM222.354 111.354C222.549 111.158 222.549 110.842 222.354 110.646L219.172 107.464C218.976 107.269 218.66 107.269 218.464 107.464C218.269 107.66 218.269 107.976 218.464 108.172L221.293 111L218.464 113.828C218.269 114.024 218.269 114.34 218.464 114.536C218.66 114.731 218.976 114.731 219.172 114.536L222.354 111.354ZM171 111.5L222 111.5L222 110.5L171 110.5L171 111.5Z" fill="black"/>
    <path d="M83.1641 107.08V108H78.8984V107.08H83.1641ZM79.1211 99.4688V108H77.9902V99.4688H79.1211ZM87.7402 99.4219V108H86.6562V100.775L84.4707 101.572V100.594L87.5703 99.4219H87.7402Z" fill="black"/>
    <path d="M196.164 107.08V108H191.898V107.08H196.164ZM192.121 99.4688V108H190.99V99.4688H192.121ZM198.76 103.201H199.533C199.912 103.201 200.225 103.139 200.471 103.014C200.721 102.885 200.906 102.711 201.027 102.492C201.152 102.27 201.215 102.02 201.215 101.742C201.215 101.414 201.16 101.139 201.051 100.916C200.941 100.693 200.777 100.525 200.559 100.412C200.34 100.299 200.062 100.242 199.727 100.242C199.422 100.242 199.152 100.303 198.918 100.424C198.688 100.541 198.506 100.709 198.373 100.928C198.244 101.146 198.18 101.404 198.18 101.701H197.096C197.096 101.268 197.205 100.873 197.424 100.518C197.643 100.162 197.949 99.8789 198.344 99.668C198.742 99.457 199.203 99.3516 199.727 99.3516C200.242 99.3516 200.693 99.4434 201.08 99.627C201.467 99.8066 201.768 100.076 201.982 100.436C202.197 100.791 202.305 101.234 202.305 101.766C202.305 101.98 202.254 102.211 202.152 102.457C202.055 102.699 201.9 102.926 201.689 103.137C201.482 103.348 201.213 103.521 200.881 103.658C200.549 103.791 200.15 103.857 199.686 103.857H198.76V103.201ZM198.76 104.092V103.441H199.686C200.229 103.441 200.678 103.506 201.033 103.635C201.389 103.764 201.668 103.936 201.871 104.15C202.078 104.365 202.223 104.602 202.305 104.859C202.391 105.113 202.434 105.367 202.434 105.621C202.434 106.02 202.365 106.373 202.229 106.682C202.096 106.99 201.906 107.252 201.66 107.467C201.418 107.682 201.133 107.844 200.805 107.953C200.477 108.062 200.119 108.117 199.732 108.117C199.361 108.117 199.012 108.064 198.684 107.959C198.359 107.854 198.072 107.701 197.822 107.502C197.572 107.299 197.377 107.051 197.236 106.758C197.096 106.461 197.025 106.123 197.025 105.744H198.109C198.109 106.041 198.174 106.301 198.303 106.523C198.436 106.746 198.623 106.92 198.865 107.045C199.111 107.166 199.4 107.227 199.732 107.227C200.064 107.227 200.35 107.17 200.588 107.057C200.83 106.939 201.016 106.764 201.145 106.529C201.277 106.295 201.344 106 201.344 105.645C201.344 105.289 201.27 104.998 201.121 104.771C200.973 104.541 200.762 104.371 200.488 104.262C200.219 104.148 199.9 104.092 199.533 104.092H198.76Z" fill="black"/>
    <path d="M112.646 110.646C112.451 110.842 112.451 111.158 112.646 111.354L115.828 114.536C116.024 114.731 116.34 114.731 116.536 114.536C116.731 114.34 116.731 114.024 116.536 113.828L113.707 111L116.536 108.172C116.731 107.976 116.731 107.66 116.536 107.464C116.34 107.269 116.024 107.269 115.828 107.464L112.646 110.646ZM171.354 111.354C171.549 111.158 171.549 110.842 171.354 110.646L168.172 107.464C167.976 107.269 167.66 107.269 167.464 107.464C167.269 107.66 167.269 107.976 167.464 108.172L170.293 111L167.464 113.828C167.269 114.024 167.269 114.34 167.464 114.536C167.66 114.731 167.976 114.731 168.172 114.536L171.354 111.354ZM113 111.5L171 111.5L171 110.5L113 110.5L113 111.5Z" fill="black"/>
    <path d="M140.164 107.08V108H135.898V107.08H140.164ZM136.121 99.4688V108H134.99V99.4688H136.121ZM146.768 107.109V108H141.184V107.221L143.979 104.109C144.322 103.727 144.588 103.402 144.775 103.137C144.967 102.867 145.1 102.627 145.174 102.416C145.252 102.201 145.291 101.982 145.291 101.76C145.291 101.479 145.232 101.225 145.115 100.998C145.002 100.768 144.834 100.584 144.611 100.447C144.389 100.311 144.119 100.242 143.803 100.242C143.424 100.242 143.107 100.316 142.854 100.465C142.604 100.609 142.416 100.812 142.291 101.074C142.166 101.336 142.104 101.637 142.104 101.977H141.02C141.02 101.496 141.125 101.057 141.336 100.658C141.547 100.26 141.859 99.9434 142.273 99.709C142.688 99.4707 143.197 99.3516 143.803 99.3516C144.342 99.3516 144.803 99.4473 145.186 99.6387C145.568 99.8262 145.861 100.092 146.064 100.436C146.271 100.775 146.375 101.174 146.375 101.631C146.375 101.881 146.332 102.135 146.246 102.393C146.164 102.646 146.049 102.9 145.9 103.154C145.756 103.408 145.586 103.658 145.391 103.904C145.199 104.15 144.994 104.393 144.775 104.631L142.49 107.109H146.768Z" fill="black"/>
    <line x1="113.563" y1="74.0807" x2="171.563" y2="91.0807" stroke="black" stroke-width="4"/>
    <line x1="171" y1="91" x2="222" y2="91" stroke="black" stroke-width="4"/>
    <path d="M43.6464 13.6464C43.4512 13.8417 43.4512 14.1583 43.6464 14.3536L46.8284 17.5355C47.0237 17.7308 47.3403 17.7308 47.5355 17.5355C47.7308 17.3403 47.7308 17.0237 47.5355 16.8284L44.7071 14L47.5355 11.1716C47.7308 10.9763 47.7308 10.6597 47.5355 10.4645C47.3403 10.2692 47.0237 10.2692 46.8284 10.4645L43.6464 13.6464ZM222.354 14.3535C222.549 14.1583 222.549 13.8417 222.354 13.6464L219.172 10.4645C218.976 10.2692 218.66 10.2692 218.464 10.4645C218.269 10.6597 218.269 10.9763 218.464 11.1716L221.293 14L218.464 16.8284C218.269 17.0237 218.269 17.3403 218.464 17.5355C218.66 17.7308 218.976 17.7308 219.172 17.5355L222.354 14.3535ZM44 14.5L222 14.5L222 13.5L44 13.5L44 14.5Z" fill="black"/>
    <path d="M134.164 10.0801V11H129.898V10.0801H134.164ZM130.121 2.46875V11H128.99V2.46875H130.121Z" fill="black"/>
</svg>
