<svg width="235" height="94" viewBox="0 0 235 94" fill="none" xmlns="http://www.w3.org/2000/svg">
    <line x1="19" y1="25" x2="38" y2="25" stroke="black" stroke-width="4"/>
    <line x1="216" y1="25" x2="235" y2="25" stroke="black" stroke-width="4"/>
    <line x1="36" y1="27" x2="36" y2="93" stroke="black" stroke-width="4"/>
    <line x1="218" y1="27" x2="218" y2="93" stroke="black" stroke-width="4"/>
    <line x1="34" y1="91" x2="216" y2="91" stroke="black" stroke-width="4"/>
    <path d="M13.3536 23.6464C13.1583 23.4512 12.8417 23.4512 12.6464 23.6464L9.46447 26.8284C9.2692 27.0237 9.2692 27.3403 9.46447 27.5355C9.65973 27.7308 9.97631 27.7308 10.1716 27.5355L13 24.7071L15.8284 27.5355C16.0237 27.7308 16.3403 27.7308 16.5355 27.5355C16.7308 27.3403 16.7308 27.0237 16.5355 26.8284L13.3536 23.6464ZM12.6464 93.3536C12.8417 93.5488 13.1583 93.5488 13.3536 93.3536L16.5355 90.1716C16.7308 89.9763 16.7308 89.6597 16.5355 89.4645C16.3403 89.2692 16.0237 89.2692 15.8284 89.4645L13 92.2929L10.1716 89.4645C9.97631 89.2692 9.65973 89.2692 9.46447 89.4645C9.26921 89.6597 9.26921 89.9763 9.46447 90.1716L12.6464 93.3536ZM12.5 24L12.5 93L13.5 93L13.5 24L12.5 24Z" fill="black"/>
    <path d="M6.5625 59.1367V60.0566H1.94531V59.1367H6.5625ZM2.12109 55.4688V64H0.990234V55.4688H2.12109ZM7.54688 55.4688V64H6.42188V55.4688H7.54688Z" fill="black"/>
    <path d="M37.6464 13.6464C37.4512 13.8417 37.4512 14.1583 37.6464 14.3536L40.8284 17.5355C41.0237 17.7308 41.3403 17.7308 41.5355 17.5355C41.7308 17.3403 41.7308 17.0237 41.5355 16.8284L38.7071 14L41.5355 11.1716C41.7308 10.9763 41.7308 10.6597 41.5355 10.4645C41.3403 10.2692 41.0237 10.2692 40.8284 10.4645L37.6464 13.6464ZM216.354 14.3535C216.549 14.1583 216.549 13.8417 216.354 13.6464L213.172 10.4645C212.976 10.2692 212.66 10.2692 212.464 10.4645C212.269 10.6597 212.269 10.9763 212.464 11.1716L215.293 14L212.464 16.8284C212.269 17.0237 212.269 17.3403 212.464 17.5355C212.66 17.7308 212.976 17.7308 213.172 17.5355L216.354 14.3535ZM38 14.5L216 14.5L216 13.5L38 13.5L38 14.5Z" fill="black"/>
    <path d="M128.164 10.0801V11H123.898V10.0801H128.164ZM124.121 2.46875V11H122.99V2.46875H124.121Z" fill="black"/>
</svg>
