<svg width="253" height="115" viewBox="0 0 253 115" fill="none" xmlns="http://www.w3.org/2000/svg">
    <line x1="25" y1="25" x2="44" y2="25" stroke="black" stroke-width="4"/>
    <line x1="222" y1="25" x2="241" y2="25" stroke="black" stroke-width="4"/>
    <line x1="42" y1="27" x2="42" y2="76" stroke="black" stroke-width="4"/>
    <line x1="224" y1="27" x2="224" y2="93" stroke="black" stroke-width="4"/>
    <line x1="42" y1="74" x2="171" y2="74" stroke="black" stroke-width="4"/>
    <path d="M19.3536 23.6464C19.1583 23.4512 18.8417 23.4512 18.6464 23.6464L15.4645 26.8284C15.2692 27.0237 15.2692 27.3403 15.4645 27.5355C15.6597 27.7308 15.9763 27.7308 16.1716 27.5355L19 24.7071L21.8284 27.5355C22.0237 27.7308 22.3403 27.7308 22.5355 27.5355C22.7308 27.3403 22.7308 27.0237 22.5355 26.8284L19.3536 23.6464ZM18.6464 76.3536C18.8417 76.5488 19.1583 76.5488 19.3536 76.3536L22.5355 73.1716C22.7308 72.9763 22.7308 72.6597 22.5355 72.4645C22.3403 72.2692 22.0237 72.2692 21.8284 72.4645L19 75.2929L16.1716 72.4645C15.9763 72.2692 15.6597 72.2692 15.4645 72.4645C15.2692 72.6597 15.2692 72.9763 15.4645 73.1716L18.6464 76.3536ZM18.5 24L18.5 76L19.5 76L19.5 24L18.5 24Z" fill="black"/>
    <path d="M6.5625 49.1367V50.0566H1.94531V49.1367H6.5625ZM2.12109 45.4688V54H0.990234V45.4688H2.12109ZM7.54688 45.4688V54H6.42188V45.4688H7.54688ZM12.8379 45.4219V54H11.7539V46.7754L9.56836 47.5723V46.5938L12.668 45.4219H12.8379Z" fill="black"/>
    <path d="M249.354 23.6464C249.158 23.4512 248.842 23.4512 248.646 23.6464L245.464 26.8284C245.269 27.0237 245.269 27.3403 245.464 27.5355C245.66 27.7308 245.976 27.7308 246.172 27.5355L249 24.7071L251.828 27.5355C252.024 27.7308 252.34 27.7308 252.536 27.5355C252.731 27.3403 252.731 27.0237 252.536 26.8284L249.354 23.6464ZM248.646 93.3536C248.842 93.5488 249.158 93.5488 249.354 93.3536L252.536 90.1716C252.731 89.9763 252.731 89.6597 252.536 89.4645C252.34 89.2692 252.024 89.2692 251.828 89.4645L249 92.2929L246.172 89.4645C245.976 89.2692 245.66 89.2692 245.464 89.4645C245.269 89.6597 245.269 89.9763 245.464 90.1716L248.646 93.3536ZM248.5 24L248.5 93L249.5 93L249.5 24L248.5 24Z" fill="black"/>
    <path d="M238.562 58.1367V59.0566H233.945V58.1367H238.562ZM234.121 54.4688V63H232.99V54.4688H234.121ZM239.547 54.4688V63H238.422V54.4688H239.547ZM246.865 62.1094V63H241.281V62.2207L244.076 59.1094C244.42 58.7266 244.686 58.4023 244.873 58.1367C245.064 57.8672 245.197 57.627 245.271 57.416C245.35 57.2012 245.389 56.9824 245.389 56.7598C245.389 56.4785 245.33 56.2246 245.213 55.998C245.1 55.7676 244.932 55.584 244.709 55.4473C244.486 55.3105 244.217 55.2422 243.9 55.2422C243.521 55.2422 243.205 55.3164 242.951 55.4648C242.701 55.6094 242.514 55.8125 242.389 56.0742C242.264 56.3359 242.201 56.6367 242.201 56.9766H241.117C241.117 56.4961 241.223 56.0566 241.434 55.6582C241.645 55.2598 241.957 54.9434 242.371 54.709C242.785 54.4707 243.295 54.3516 243.9 54.3516C244.439 54.3516 244.9 54.4473 245.283 54.6387C245.666 54.8262 245.959 55.0918 246.162 55.4355C246.369 55.7754 246.473 56.1738 246.473 56.6309C246.473 56.8809 246.43 57.1348 246.344 57.3926C246.262 57.6465 246.146 57.9004 245.998 58.1543C245.854 58.4082 245.684 58.6582 245.488 58.9043C245.297 59.1504 245.092 59.3926 244.873 59.6309L242.588 62.1094H246.865Z" fill="black"/>
    <path d="M43.6464 110.646C43.4512 110.842 43.4512 111.158 43.6464 111.354L46.8284 114.536C47.0237 114.731 47.3403 114.731 47.5355 114.536C47.7308 114.34 47.7308 114.024 47.5355 113.828L44.7071 111L47.5355 108.172C47.7308 107.976 47.7308 107.66 47.5355 107.464C47.3403 107.269 47.0237 107.269 46.8284 107.464L43.6464 110.646ZM171.354 111.354C171.549 111.158 171.549 110.842 171.354 110.646L168.172 107.464C167.976 107.269 167.66 107.269 167.464 107.464C167.269 107.66 167.269 107.976 167.464 108.172L170.293 111L167.464 113.828C167.269 114.024 167.269 114.34 167.464 114.536C167.66 114.731 167.976 114.731 168.172 114.536L171.354 111.354ZM44 111.5L171 111.5L171 110.5L44 110.5L44 111.5Z" fill="black"/>
    <path d="M170.646 110.646C170.451 110.842 170.451 111.158 170.646 111.354L173.828 114.536C174.024 114.731 174.34 114.731 174.536 114.536C174.731 114.34 174.731 114.024 174.536 113.828L171.707 111L174.536 108.172C174.731 107.976 174.731 107.66 174.536 107.464C174.34 107.269 174.024 107.269 173.828 107.464L170.646 110.646ZM222.354 111.354C222.549 111.158 222.549 110.842 222.354 110.646L219.172 107.464C218.976 107.269 218.66 107.269 218.464 107.464C218.269 107.66 218.269 107.976 218.464 108.172L221.293 111L218.464 113.828C218.269 114.024 218.269 114.34 218.464 114.536C218.66 114.731 218.976 114.731 219.172 114.536L222.354 111.354ZM171 111.5L222 111.5L222 110.5L171 110.5L171 111.5Z" fill="black"/>
    <path d="M109.164 107.08V108H104.898V107.08H109.164ZM105.121 99.4688V108H103.99V99.4688H105.121ZM113.74 99.4219V108H112.656V100.775L110.471 101.572V100.594L113.57 99.4219H113.74Z" fill="black"/>
    <path d="M196.164 107.08V108H191.898V107.08H196.164ZM192.121 99.4688V108H190.99V99.4688H192.121ZM202.768 107.109V108H197.184V107.221L199.979 104.109C200.322 103.727 200.588 103.402 200.775 103.137C200.967 102.867 201.1 102.627 201.174 102.416C201.252 102.201 201.291 101.982 201.291 101.76C201.291 101.479 201.232 101.225 201.115 100.998C201.002 100.768 200.834 100.584 200.611 100.447C200.389 100.311 200.119 100.242 199.803 100.242C199.424 100.242 199.107 100.316 198.854 100.465C198.604 100.609 198.416 100.812 198.291 101.074C198.166 101.336 198.104 101.637 198.104 101.977H197.02C197.02 101.496 197.125 101.057 197.336 100.658C197.547 100.26 197.859 99.9434 198.273 99.709C198.688 99.4707 199.197 99.3516 199.803 99.3516C200.342 99.3516 200.803 99.4473 201.186 99.6387C201.568 99.8262 201.861 100.092 202.064 100.436C202.271 100.775 202.375 101.174 202.375 101.631C202.375 101.881 202.332 102.135 202.246 102.393C202.164 102.646 202.049 102.9 201.9 103.154C201.756 103.408 201.586 103.658 201.391 103.904C201.199 104.15 200.994 104.393 200.775 104.631L198.49 107.109H202.768Z" fill="black"/>
    <line x1="171.632" y1="74.1026" x2="222.632" y2="91.1026" stroke="black" stroke-width="4"/>
    <path d="M43.6464 13.6464C43.4512 13.8417 43.4512 14.1583 43.6464 14.3536L46.8284 17.5355C47.0237 17.7308 47.3403 17.7308 47.5355 17.5355C47.7308 17.3403 47.7308 17.0237 47.5355 16.8284L44.7071 14L47.5355 11.1716C47.7308 10.9763 47.7308 10.6597 47.5355 10.4645C47.3403 10.2692 47.0237 10.2692 46.8284 10.4645L43.6464 13.6464ZM222.354 14.3535C222.549 14.1583 222.549 13.8417 222.354 13.6464L219.172 10.4645C218.976 10.2692 218.66 10.2692 218.464 10.4645C218.269 10.6597 218.269 10.9763 218.464 11.1716L221.293 14L218.464 16.8284C218.269 17.0237 218.269 17.3403 218.464 17.5355C218.66 17.7308 218.976 17.7308 219.172 17.5355L222.354 14.3535ZM44 14.5L222 14.5L222 13.5L44 13.5L44 14.5Z" fill="black"/>
    <path d="M134.164 10.0801V11H129.898V10.0801H134.164ZM130.121 2.46875V11H128.99V2.46875H130.121Z" fill="black"/>
</svg>
