<svg width="29" height="30" viewBox="0 0 29 30" fill="none" xmlns="http://www.w3.org/2000/svg">
    <path fill-rule="evenodd" clip-rule="evenodd" d="M4.61245 0.500006V0.499994L4.60766 0.500017C3.5073 0.505283 2.46139 0.961826 1.69516 1.75748C0.930143 2.55189 0.504438 3.62016 0.499522 4.72807H0.499512V4.73251V25.2675L0.499522 25.2719C0.504438 26.3799 0.930143 27.4481 1.69516 28.2425C2.46139 29.0382 3.5073 29.4947 4.60766 29.5L4.61245 29.5H24.3879L24.3927 29.5C25.493 29.4947 26.5389 29.0382 27.3052 28.2425C28.0702 27.4481 28.4959 26.3799 28.5008 25.2719L28.5008 25.2675V11.25C28.5008 10.6977 28.0531 10.25 27.5008 10.25C26.9485 10.25 26.5008 10.6977 26.5008 11.25V25.2654C26.4976 25.8688 26.265 26.4394 25.8646 26.8552C25.4654 27.2697 24.933 27.4968 24.3853 27.5H4.61508C4.06734 27.4968 3.53495 27.2697 3.13577 26.8552C2.7353 26.4394 2.5027 25.8686 2.49951 25.2651V4.73492C2.5027 4.13138 2.7353 3.56065 3.13577 3.1448C3.53496 2.73028 4.06734 2.50321 4.61508 2.50001H24.3853C24.933 2.50321 25.4654 2.73028 25.8646 3.1448C26.265 3.56058 26.4976 4.13119 26.5008 4.73462V5.10001C26.5008 5.48321 26.3539 5.84349 26.1036 6.1034C25.8545 6.36203 25.5249 6.50001 25.1896 6.50001H6.55532C6.00304 6.50001 5.55532 6.94772 5.55532 7.50001C5.55532 8.05229 6.00304 8.50001 6.55532 8.50001H25.1896C26.0802 8.50001 26.9264 8.13227 27.5442 7.49072C28.1608 6.85046 28.5008 5.98984 28.5008 5.10001L28.5008 4.73251L28.5008 4.72807C28.4959 3.62016 28.0702 2.55189 27.3052 1.75748C26.5389 0.961825 25.493 0.505283 24.3927 0.500006H24.3879H4.61245ZM13.0557 3.50001C12.5034 3.50001 12.0557 3.94772 12.0557 4.50001C12.0557 5.05229 12.5034 5.50001 13.0557 5.50001H15.2224C15.7747 5.50001 16.2224 5.05229 16.2224 4.50001C16.2224 3.94772 15.7747 3.50001 15.2224 3.50001H13.0557ZM17.1115 4.50001C17.1115 3.94772 17.5592 3.50001 18.1115 3.50001H19.556C20.1083 3.50001 20.556 3.94772 20.556 4.50001C20.556 5.05229 20.1083 5.50001 19.556 5.50001H18.1115C17.5592 5.50001 17.1115 5.05229 17.1115 4.50001ZM22.445 3.50001C21.8927 3.50001 21.445 3.94772 21.445 4.50001C21.445 5.05229 21.8927 5.50001 22.445 5.50001H24.6118C25.1641 5.50001 25.6118 5.05229 25.6118 4.50001C25.6118 3.94772 25.1641 3.50001 24.6118 3.50001H22.445ZM4.38855 8.59501C4.78744 8.59501 5.11081 8.25922 5.11081 7.84501C5.11081 7.43079 4.78744 7.09501 4.38855 7.09501C3.98965 7.09501 3.66629 7.43079 3.66629 7.84501C3.66629 8.25922 3.98965 8.59501 4.38855 8.59501ZM17.8781 12.4926C18.0715 11.9752 17.8088 11.3991 17.2915 11.2058C16.7741 11.0124 16.198 11.2751 16.0047 11.7924L11.31 24.3549C11.1167 24.8723 11.3793 25.4484 11.8967 25.6417C12.414 25.8351 12.9901 25.5724 13.1835 25.0551L17.8781 12.4926ZM19.2668 14.5122C19.6646 14.1291 20.2977 14.141 20.6808 14.5388L23.6637 17.6363C24.0369 18.0239 24.0366 18.6373 23.6629 19.0245L20.4994 22.302C20.1158 22.6994 19.4828 22.7106 19.0854 22.327C18.688 21.9435 18.6768 21.3104 19.0604 20.913L21.5543 18.3292L19.2401 15.9262C18.857 15.5284 18.869 14.8953 19.2668 14.5122ZM10.0771 15.972C10.4607 15.5747 10.4496 14.9416 10.0522 14.558C9.65487 14.1745 9.0218 14.1856 8.63822 14.583L5.6553 17.673C5.28157 18.0601 5.2812 18.6736 5.65446 19.0612L8.81795 22.3462C9.20105 22.744 9.8341 22.7559 10.2319 22.3728C10.6297 21.9897 10.6417 21.3567 10.2586 20.9588L7.76387 18.3683L10.0771 15.972Z" fill="#ABABAB"/>
</svg>
