<svg width="29" height="29" viewBox="0 0 29 29" fill="none" xmlns="http://www.w3.org/2000/svg">
    <path d="M17.2 2.71315C17.2 1.7668 16.4332 1 15.4869 1H13.5145C12.5668 1 11.8 1.7668 11.8 2.71315C11.8 3.49345 11.2654 4.16305 10.5377 4.44925C10.423 4.49515 10.3083 4.54375 10.1962 4.59235C9.47935 4.90285 8.6275 4.80835 8.074 4.2562C7.75276 3.93519 7.31719 3.75486 6.86305 3.75486C6.40891 3.75486 5.97334 3.93519 5.6521 4.2562L4.2562 5.6521C3.93519 5.97334 3.75486 6.40891 3.75486 6.86305C3.75486 7.31719 3.93519 7.75276 4.2562 8.074V8.074C4.8097 8.6275 4.9042 9.478 4.591 10.1962C4.54179 10.3092 4.49453 10.4231 4.44925 10.5377C4.16305 11.2654 3.49345 11.8 2.71315 11.8C1.7668 11.8 1 12.5668 1 13.5132V15.4869C1 16.4332 1.7668 17.2 2.71315 17.2C3.49345 17.2 4.16305 17.7346 4.44925 18.4623C4.49515 18.577 4.54375 18.6917 4.591 18.8038C4.90285 19.5206 4.80835 20.3725 4.2562 20.926C3.93519 21.2472 3.75486 21.6828 3.75486 22.1369C3.75486 22.5911 3.93519 23.0267 4.2562 23.3479L5.6521 24.7438C5.97334 25.0648 6.40891 25.2451 6.86305 25.2451C7.31719 25.2451 7.75276 25.0648 8.074 24.7438C8.6275 24.1903 9.478 24.0958 10.1962 24.4077C10.3083 24.4576 10.423 24.5049 10.5377 24.5508C11.2654 24.837 11.8 25.5066 11.8 26.2869C11.8 27.2332 12.5668 28 13.5132 28H15.4869C16.4332 28 17.2 27.2332 17.2 26.2869C17.2 25.5066 17.7346 24.837 18.4623 24.5494C18.577 24.5049 18.6917 24.4576 18.8038 24.409C19.5206 24.0958 20.3725 24.1916 20.9247 24.7438C21.0837 24.903 21.2726 25.0292 21.4805 25.1153C21.6884 25.2015 21.9112 25.2458 22.1363 25.2458C22.3613 25.2458 22.5841 25.2015 22.792 25.1153C22.9999 25.0292 23.1888 24.903 23.3479 24.7438L24.7438 23.3479C25.0648 23.0267 25.2451 22.5911 25.2451 22.1369C25.2451 21.6828 25.0648 21.2472 24.7438 20.926V20.926C24.1903 20.3725 24.0958 19.522 24.4077 18.8038C24.4576 18.6917 24.5049 18.577 24.5508 18.4623C24.837 17.7346 25.5066 17.2 26.2869 17.2C27.2332 17.2 28 16.4332 28 15.4869V13.5145C28 12.5682 27.2332 11.8014 26.2869 11.8014C25.5066 11.8014 24.837 11.2668 24.5494 10.5391C24.5042 10.4244 24.4569 10.3106 24.4077 10.1975C24.0972 9.4807 24.1916 8.62885 24.7438 8.07535C25.0648 7.75411 25.2451 7.31854 25.2451 6.8644C25.2451 6.41025 25.0648 5.97469 24.7438 5.65345L23.3479 4.25755C23.0267 3.93654 22.5911 3.75621 22.1369 3.75621C21.6828 3.75621 21.2472 3.93654 20.926 4.25755V4.25755C20.3725 4.81105 19.522 4.90555 18.8038 4.5937C18.6908 4.54403 18.5769 4.49632 18.4623 4.4506C17.7346 4.16305 17.2 3.49345 17.2 2.7145V2.71315Z" stroke="#ABABAB" stroke-width="2"/>
    <path d="M19.9 14.5C19.9 15.9321 19.331 17.3057 18.3184 18.3184C17.3057 19.331 15.9321 19.9 14.5 19.9C13.0678 19.9 11.6943 19.331 10.6816 18.3184C9.6689 17.3057 9.09998 15.9321 9.09998 14.5C9.09998 13.0678 9.6689 11.6943 10.6816 10.6816C11.6943 9.6689 13.0678 9.09998 14.5 9.09998C15.9321 9.09998 17.3057 9.6689 18.3184 10.6816C19.331 11.6943 19.9 13.0678 19.9 14.5V14.5Z" stroke="#ABABAB" stroke-width="2"/>
</svg>
