<svg width="30" height="35" viewBox="0 0 30 35" fill="#0FA958" xmlns="http://www.w3.org/2000/svg">
    <path d="M13.5 0V6.08696H16.5V0H13.5ZM24.45 3.48478L19.86 8.05L21.96 10.2109L26.55 5.64565L24.45 3.48478ZM5.565 3.48478L3.435 5.64565L7.935 10.2109L10.065 8.05L5.565 3.48478ZM15 9.13043C13.4087 9.13043 11.8826 9.77174 10.7574 10.9133C9.63214 12.0548 9 13.603 9 15.2174V24.3478H6V27.3913H10.5V35H13.5V27.3913H16.5V35H19.5V27.3913H24V24.3478H21V15.2174C21 13.603 20.3679 12.0548 19.2426 10.9133C18.1174 9.77174 16.5913 9.13043 15 9.13043ZM0 13.6957V16.7391H6V13.6957H0ZM24 13.6957V16.7391H30V13.6957H24Z"/>
</svg>
