<svg width="37" height="37" viewBox="0 0 37 37" fill="none" xmlns="http://www.w3.org/2000/svg">
    <path d="M22 3.22075C22 1.994 21.006 1 19.7792 1H17.2225C15.994 1 15 1.994 15 3.22075C15 4.23225 14.307 5.10025 13.3637 5.47125C13.215 5.53075 13.0663 5.59375 12.921 5.65675C11.9918 6.05925 10.8875 5.93675 10.17 5.221C9.75357 4.80487 9.18896 4.57111 8.60025 4.57111C8.01154 4.57111 7.44693 4.80487 7.0305 5.221L5.221 7.0305C4.80487 7.44693 4.57111 8.01154 4.57111 8.60025C4.57111 9.18896 4.80487 9.75357 5.221 10.17V10.17C5.9385 10.8875 6.061 11.99 5.655 12.921C5.59121 13.0675 5.52995 13.2151 5.47125 13.3637C5.10025 14.307 4.23225 15 3.22075 15C1.994 15 1 15.994 1 17.2208V19.7792C1 21.006 1.994 22 3.22075 22C4.23225 22 5.10025 22.693 5.47125 23.6363C5.53075 23.785 5.59375 23.9337 5.655 24.079C6.05925 25.0082 5.93675 26.1125 5.221 26.83C4.80487 27.2464 4.57111 27.811 4.57111 28.3997C4.57111 28.9885 4.80487 29.5531 5.221 29.9695L7.0305 31.779C7.44693 32.1951 8.01154 32.4289 8.60025 32.4289C9.18896 32.4289 9.75357 32.1951 10.17 31.779C10.8875 31.0615 11.99 30.939 12.921 31.3433C13.0663 31.408 13.215 31.4692 13.3637 31.5287C14.307 31.8997 15 32.7678 15 33.7793C15 35.006 15.994 36 17.2208 36H19.7792C21.006 36 22 35.006 22 33.7793C22 32.7678 22.693 31.8998 23.6363 31.527C23.785 31.4693 23.9337 31.408 24.079 31.345C25.0082 30.939 26.1125 31.0632 26.8283 31.779C27.0345 31.9853 27.2793 32.149 27.5488 32.2606C27.8183 32.3723 28.1072 32.4298 28.3989 32.4298C28.6906 32.4298 28.9794 32.3723 29.2489 32.2606C29.5184 32.149 29.7633 31.9853 29.9695 31.779L31.779 29.9695C32.1951 29.5531 32.4289 28.9885 32.4289 28.3997C32.4289 27.811 32.1951 27.2464 31.779 26.83V26.83C31.0615 26.1125 30.939 25.01 31.3433 24.079C31.408 23.9337 31.4692 23.785 31.5287 23.6363C31.8997 22.693 32.7678 22 33.7793 22C35.006 22 36 21.006 36 19.7792V17.2225C36 15.9958 35.006 15.0018 33.7793 15.0018C32.7678 15.0018 31.8998 14.3087 31.527 13.3655C31.4684 13.2168 31.4071 13.0692 31.3433 12.9227C30.9408 11.9935 31.0632 10.8893 31.779 10.1718C32.1951 9.75532 32.4289 9.19071 32.4289 8.602C32.4289 8.01329 32.1951 7.44868 31.779 7.03225L29.9695 5.22275C29.5531 4.80662 28.9885 4.57286 28.3997 4.57286C27.811 4.57286 27.2464 4.80662 26.83 5.22275V5.22275C26.1125 5.94025 25.01 6.06275 24.079 5.6585C23.9325 5.59411 23.7849 5.53227 23.6363 5.473C22.693 5.10025 22 4.23225 22 3.2225V3.22075Z" stroke="black" stroke-width="2"/>
    <path d="M25.5 18.5C25.5 20.3565 24.7625 22.137 23.4497 23.4497C22.137 24.7625 20.3565 25.5 18.5 25.5C16.6435 25.5 14.863 24.7625 13.5503 23.4497C12.2375 22.137 11.5 20.3565 11.5 18.5C11.5 16.6435 12.2375 14.863 13.5503 13.5503C14.863 12.2375 16.6435 11.5 18.5 11.5C20.3565 11.5 22.137 12.2375 23.4497 13.5503C24.7625 14.863 25.5 16.6435 25.5 18.5Z" stroke="black" stroke-width="2"/>
</svg>
