<svg width="24" height="24" viewBox="0 0 24 24" fill="none" xmlns="http://www.w3.org/2000/svg">
    <path d="M21.9037 12.0496C21.9154 11.7805 22.0309 11.5263 22.2262 11.34C22.4215 11.1537 22.6814 11.0497 22.9518 11.0497C23.2222 11.0497 23.4822 11.1537 23.6775 11.34C23.8728 11.5263 23.9883 11.7805 24 12.0496C23.9997 14.4233 23.2899 16.7432 21.9609 18.7135C20.6319 20.6839 18.744 22.2154 16.5379 23.1128C14.3317 24.0103 11.9073 24.2331 9.57356 23.7527C7.23984 23.2724 5.10256 22.1108 3.43416 20.4158V22.8237C3.43416 23.1009 3.32363 23.3667 3.12688 23.5627C2.93013 23.7587 2.66328 23.8688 2.38503 23.8688C2.10678 23.8688 1.83993 23.7587 1.64317 23.5627C1.44642 23.3667 1.33589 23.1009 1.33589 22.8237V17.4581C1.33847 17.1826 1.45014 16.9193 1.64661 16.7254C1.84309 16.5316 2.10847 16.4228 2.38503 16.4228H7.83036C7.97182 16.4167 8.11305 16.4392 8.24555 16.4889C8.37805 16.5387 8.49907 16.6146 8.60133 16.7121C8.70358 16.8097 8.78496 16.9268 8.84055 17.0566C8.89615 17.1863 8.92481 17.3258 8.92481 17.4669C8.92481 17.6079 8.89615 17.7475 8.84055 17.8772C8.78496 18.0069 8.70358 18.1241 8.60133 18.2216C8.49907 18.3192 8.37805 18.3951 8.24555 18.4448C8.11305 18.4946 7.97182 18.517 7.83036 18.511H4.50288C5.82424 20.0327 7.58109 21.1155 9.53784 21.6144C11.4946 22.1133 13.5577 22.0043 15.4505 21.3021C17.3433 20.5998 18.9753 19.3379 20.1277 17.6855C21.2801 16.0332 21.8977 14.0693 21.8978 12.0574L21.9037 12.0496ZM20.8663 1.09018C20.8602 0.949275 20.8828 0.808594 20.9327 0.676612C20.9826 0.54463 21.0588 0.424079 21.1567 0.32222C21.2547 0.220361 21.3723 0.139302 21.5025 0.0839249C21.6327 0.0285482 21.7729 0 21.9144 0C22.056 0 22.1962 0.0285482 22.3264 0.0839249C22.4566 0.139302 22.5742 0.220361 22.6721 0.32222C22.7701 0.424079 22.8463 0.54463 22.8962 0.676612C22.9461 0.808594 22.9687 0.949275 22.9626 1.09018V6.50651C22.9621 6.78166 22.8527 7.04551 22.6581 7.24079C22.4635 7.43608 22.1995 7.54705 21.9233 7.54961H16.5288C16.3874 7.5557 16.2461 7.53321 16.1136 7.48349C15.9811 7.43376 15.8601 7.35784 15.7578 7.26029C15.6556 7.16274 15.5742 7.04558 15.5186 6.91586C15.463 6.78615 15.4344 6.64657 15.4344 6.50554C15.4344 6.3645 15.463 6.22492 15.5186 6.09521C15.5742 5.9655 15.6556 5.84834 15.7578 5.75079C15.8601 5.65324 15.9811 5.57731 16.1136 5.52759C16.2461 5.47786 16.3874 5.45537 16.5288 5.46146H19.3787C18.0405 3.97331 16.2802 2.92495 14.3307 2.45509C12.3813 1.98522 10.3346 2.116 8.46139 2.83011C6.58819 3.54422 4.97679 4.80801 3.84039 6.45428C2.704 8.10054 2.09616 10.0517 2.0973 12.0496C2.10341 12.1905 2.08083 12.3312 2.03091 12.4631C1.98099 12.5951 1.90477 12.7157 1.80684 12.8175C1.70891 12.9194 1.59129 13.0005 1.46107 13.0558C1.33085 13.1112 1.19073 13.1398 1.04914 13.1398C0.907549 13.1398 0.767425 13.1112 0.637206 13.0558C0.506988 13.0005 0.38937 12.9194 0.291437 12.8175C0.193504 12.7157 0.117283 12.5951 0.0673646 12.4631C0.0174465 12.3312 -0.00513556 12.1905 0.000978723 12.0496C0.00209557 9.96879 0.548465 7.92434 1.58605 6.1184C2.62364 4.31245 4.11651 2.80758 5.91703 1.75259C7.71754 0.697598 9.76333 0.12904 11.8521 0.103139C13.9408 0.0772378 16.0002 0.594891 17.8265 1.60491C18.9622 2.23458 19.9886 3.04236 20.8663 3.99722V1.09018Z" fill="#707CE4"/>
</svg>
